<?xml version="1.0"?>
<svg xmlns="http://www.w3.org/2000/svg" xmlns:xlink="http://www.w3.org/1999/xlink" version="1.1" id="Capa_1" x="0px" y="0px" viewBox="0 0 352 352" style="enable-background:new 0 0 352 352;" xml:space="preserve" width="512px" height="512px" class=""><g><g>
	<g>
		<rect x="64" y="136" width="64" height="128" data-original="#000000" class="active-path" data-old_color="#000000" fill="#FFFFFF"/>
	</g>
</g><g>
	<g>
		<rect x="176" y="168" width="64" height="96" data-original="#000000" class="active-path" data-old_color="#000000" fill="#FFFFFF"/>
	</g>
</g><g>
	<g>
		<rect x="288" y="120" width="64" height="144" data-original="#000000" class="active-path" data-old_color="#000000" fill="#FFFFFF"/>
	</g>
</g><g>
	<g>
		<path d="M319.999,24c-17.68,0-32,14.32-32,32c0,1.648,0.24,3.216,0.48,4.8l-55.28,23.696C227.343,76.944,218.287,72,207.999,72    c-11.744,0-21.904,6.4-27.472,15.824l-52.608-15.04c0-0.256,0.08-0.512,0.08-0.784c0-17.68-14.32-32-32-32    c-17.68,0-32,14.32-32,32s14.32,32,32,32c11.744,0,21.904-6.4,27.472-15.824l52.608,15.04c0,0.256-0.08,0.512-0.08,0.784    c0,17.68,14.32,32,32,32s32-14.32,32-32c0-1.648-0.24-3.216-0.48-4.8l55.28-23.696C300.655,83.056,309.711,88,319.999,88    c17.68,0,32-14.32,32-32S337.679,24,319.999,24z" data-original="#000000" class="active-path" data-old_color="#000000" fill="#FFFFFF"/>
	</g>
</g><g>
	<g>
		<rect y="296" width="32" height="32" data-original="#000000" class="active-path" data-old_color="#000000" fill="#FFFFFF"/>
	</g>
</g><g>
	<g>
		<rect y="232" width="32" height="32" data-original="#000000" class="active-path" data-old_color="#000000" fill="#FFFFFF"/>
	</g>
</g><g>
	<g>
		<rect y="168" width="32" height="32" data-original="#000000" class="active-path" data-old_color="#000000" fill="#FFFFFF"/>
	</g>
</g><g>
	<g>
		<rect y="104" width="32" height="32" data-original="#000000" class="active-path" data-old_color="#000000" fill="#FFFFFF"/>
	</g>
</g><g>
	<g>
		<rect y="40" width="32" height="32" data-original="#000000" class="active-path" data-old_color="#000000" fill="#FFFFFF"/>
	</g>
</g><g>
	<g>
		<rect x="64" y="296" width="32" height="32" data-original="#000000" class="active-path" data-old_color="#000000" fill="#FFFFFF"/>
	</g>
</g><g>
	<g>
		<rect x="128" y="296" width="32" height="32" data-original="#000000" class="active-path" data-old_color="#000000" fill="#FFFFFF"/>
	</g>
</g><g>
	<g>
		<rect x="192" y="296" width="32" height="32" data-original="#000000" class="active-path" data-old_color="#000000" fill="#FFFFFF"/>
	</g>
</g><g>
	<g>
		<rect x="256" y="296" width="32" height="32" data-original="#000000" class="active-path" data-old_color="#000000" fill="#FFFFFF"/>
	</g>
</g><g>
	<g>
		<rect x="320" y="296" width="32" height="32" data-original="#000000" class="active-path" data-old_color="#000000" fill="#FFFFFF"/>
	</g>
</g></g> </svg>
