<?xml version="1.0"?>
<svg xmlns="http://www.w3.org/2000/svg" xmlns:xlink="http://www.w3.org/1999/xlink" version="1.1" id="Capa_1" x="0px" y="0px" viewBox="0 0 512 512" style="enable-background:new 0 0 512 512;" xml:space="preserve" width="512px" height="512px" class=""><g><g>
	<g>
		<path d="M501.333,448H10.667C4.779,448,0,452.779,0,458.667s4.779,10.667,10.667,10.667h490.667    c5.888,0,10.667-4.779,10.667-10.667S507.221,448,501.333,448z" data-original="#000000" class="active-path" data-old_color="#000000" fill="#FFFFFF"/>
	</g>
</g><g>
	<g>
		<path d="M53.333,0c-5.888,0-10.667,4.779-10.667,10.667v490.667c0,5.888,4.779,10.667,10.667,10.667S64,507.221,64,501.333V10.667    C64,4.779,59.221,0,53.333,0z" data-original="#000000" class="active-path" data-old_color="#000000" fill="#FFFFFF"/>
	</g>
</g><g>
	<g>
		<path d="M309.333,320h-192c-5.888,0-10.667,4.779-10.667,10.667v64c0,5.888,4.779,10.667,10.667,10.667h192    c5.888,0,10.667-4.779,10.667-10.667v-64C320,324.779,315.221,320,309.333,320z" data-original="#000000" class="active-path" data-old_color="#000000" fill="#FFFFFF"/>
	</g>
</g><g>
	<g>
		<path d="M373.333,64h-256c-5.888,0-10.667,4.779-10.667,10.667v64c0,5.888,4.779,10.667,10.667,10.667h256    c5.888,0,10.667-4.779,10.667-10.667v-64C384,68.779,379.221,64,373.333,64z" data-original="#000000" class="active-path" data-old_color="#000000" fill="#FFFFFF"/>
	</g>
</g><g>
	<g>
		<path d="M480,192H117.333c-5.888,0-10.667,4.779-10.667,10.667v64c0,5.888,4.779,10.667,10.667,10.667H480    c5.888,0,10.667-4.779,10.667-10.667v-64C490.667,196.779,485.888,192,480,192z" data-original="#000000" class="active-path" data-old_color="#000000" fill="#FFFFFF"/>
	</g>
</g></g> </svg>
